<svg width="90" height="170" viewBox="0 0 90 170" fill="none" xmlns="http://www.w3.org/2000/svg">
<path d="M34.5079 152.971L52.254 136L70 152.971L52.254 169.941L34.5079 152.971Z" fill="#D9D9D9"/>
<path d="M34.5079 86.9706L52.254 70L70 86.9706L52.254 103.941L34.5079 86.9706Z" fill="#D9D9D9"/>
<path d="M33.8164 86.248L33.0615 86.9707L33.8164 87.6934L35.2178 89.0332C31.9928 90.6627 29.0332 92.748 26.4424 95.2256C23.0448 98.4748 20.3472 102.335 18.5059 106.586C16.6644 110.837 15.7158 115.395 15.7158 120C15.7158 124.605 16.6644 129.163 18.5059 133.414C20.3472 137.665 23.0448 141.525 26.4424 144.774C29.0223 147.242 31.9685 149.319 35.1777 150.945L33.8164 152.248L33.0615 152.971L33.8164 153.693L49.7598 168.939C43.8818 168.663 38.0915 167.422 32.6445 165.265C26.4191 162.799 20.7652 159.185 16.0049 154.633C11.2446 150.081 7.47111 144.678 4.89746 138.736C2.32397 132.795 1 126.428 1 120C1 113.572 2.32397 107.205 4.89746 101.264C7.47111 95.3219 11.2446 89.9194 16.0049 85.3672C20.7652 80.8149 26.4191 77.2013 32.6445 74.7354C38.0713 72.5858 43.8388 71.3455 49.6943 71.0625L33.8164 86.248ZM37.1172 151.858C37.51 152.03 37.9052 152.197 38.3047 152.355C42.4299 153.99 46.8295 154.883 51.2852 155V167.631L35.9541 152.971L37.1172 151.858ZM68.5527 152.971L53.2852 167.571V153.015H52.2852C47.7394 153.015 43.2385 152.159 39.041 150.496C38.9238 150.45 38.808 150.4 38.6914 150.353L52.2539 137.384L68.5527 152.971ZM68.5527 86.9707L52.2539 102.557L38.7344 89.6289C38.8366 89.5873 38.9384 89.5446 39.041 89.5039C43.2385 87.8412 47.7394 86.9854 52.2852 86.9854H53.2852V72.3691L68.5527 86.9707ZM51.2852 84.999C46.8295 85.1157 42.4299 86.0105 38.3047 87.6445C37.9194 87.7971 37.5382 87.9582 37.1592 88.123L35.9541 86.9707L51.2852 72.3096V84.999Z" stroke="black" stroke-width="2"/>
<rect x="71" y="1" width="18" height="168" stroke="black" stroke-width="2"/>
</svg>
